<?xml version="1.0" encoding="UTF-8" standalone="no"?>
<svg width="50px" height="50px" viewBox="0 0 50 50" version="1.1" xmlns="http://www.w3.org/2000/svg" xmlns:xlink="http://www.w3.org/1999/xlink">
    <!-- Generator: Sketch 43 (38999) - http://www.bohemiancoding.com/sketch -->
    <title>apply_icon</title>
    <desc>Created with Sketch.</desc>
    <defs></defs>
    <g id="災損查詢服務網首頁" stroke="none" stroke-width="1" fill="none" fill-rule="evenodd">
        <g id="test9" transform="translate(-146.000000, -2466.000000)" fill="#FFFFFF">
            <g id="#3-TLAS-3.0" transform="translate(0.000000, 1751.000000)">
                <g id="模組icon" transform="translate(123.000000, 281.000000)">
                    <g id="應用範例" transform="translate(0.000000, 410.000000)">
                        <g id="apply_icon" transform="translate(23.000000, 24.000000)">
                            <path d="M29.5454545,25.3731343 C29.5454545,27.8455224 27.5098485,29.8507463 25,29.8507463 C22.4901515,29.8507463 20.4545455,27.8455224 20.4545455,25.3731343 C20.4545455,22.9007463 22.4901515,20.8955224 25,20.8955224 C27.5098485,20.8955224 29.5454545,22.9007463 29.5454545,25.3731343 Z" id="Fill-1"></path>
                            <path d="M12.8787879,18.6567164 C14.1340909,18.6567164 15.1515152,19.6589552 15.1515152,20.8955224 C15.1515152,22.1320896 14.1340909,23.1343284 12.8787879,23.1343284 C11.6234848,23.1343284 10.6060606,22.1320896 10.6060606,20.8955224 C10.6060606,19.6589552 11.6234848,18.6567164 12.8787879,18.6567164" id="Fill-3"></path>
                            <path d="M25,0 C26.255303,0 27.2727273,1.00223881 27.2727273,2.23880597 C27.2727273,3.47537313 26.255303,4.47761194 25,4.47761194 C23.744697,4.47761194 22.7272727,3.47537313 22.7272727,2.23880597 C22.7272727,1.00223881 23.744697,0 25,0" id="Fill-5"></path>
                            <path d="M40.9090909,40.2985075 C42.1643939,40.2985075 43.1818182,41.3007463 43.1818182,42.5373134 C43.1818182,43.7738806 42.1643939,44.7761194 40.9090909,44.7761194 C39.6537879,44.7761194 38.6363636,43.7738806 38.6363636,42.5373134 C38.6363636,41.3007463 39.6537879,40.2985075 40.9090909,40.2985075" id="Fill-7"></path>
                            <path d="M25,35.8208955 C26.255303,35.8208955 27.2727273,36.8231343 27.2727273,38.0597015 C27.2727273,39.2962687 26.255303,40.2985075 25,40.2985075 C23.744697,40.2985075 22.7272727,39.2962687 22.7272727,38.0597015 C22.7272727,36.8231343 23.744697,35.8208955 25,35.8208955" id="Fill-9"></path>
                            <path d="M50,25.3731343 C50,13.8537313 41.9068182,3.94701493 30.6643939,1.38134328 C29.8484848,1.19552239 29.0348485,1.69552239 28.8454545,2.49850746 C28.6568182,3.30149254 29.1643939,4.10373134 29.9795455,4.28955224 C39.8560606,6.54328358 46.969697,15.2507463 46.969697,25.3731343 C46.969697,29.641791 45.7143939,33.7231343 43.3916667,37.2156716 C42.9333333,37.9052239 43.1295455,38.8298507 43.8287879,39.2820896 C44.5287879,39.7335821 45.4681818,39.5402985 45.9265152,38.8514925 C48.569697,34.8761194 50,30.2276119 50,25.3731343 M0,25.3731343 C0,38.9746269 11.1924242,50 25,50 C29.3060606,50 33.4560606,48.9253731 37.1378788,46.9067164 C37.8689394,46.5059701 38.1325758,45.5977612 37.7257576,44.8776119 C37.3189394,44.1567164 36.3962121,43.8977612 35.6651515,44.2985075 C32.4310606,46.0708955 28.7863636,47.0149254 25,47.0149254 C12.8666667,47.0149254 3.03030303,37.3261194 3.03030303,25.3731343 C3.03030303,15.2395522 10.1583333,6.5261194 20.0484848,4.28283582 C20.8643939,4.09776119 21.3727273,3.29626866 21.1856061,2.49328358 C20.9977273,1.69029851 20.1848485,1.18880597 19.3689394,1.3738806 C8.10984848,3.92761194 0,13.841791 0,25.3731343" id="Fill-11"></path>
                            <path d="M39.3939394,25.3731343 C39.3939394,17.541791 32.9492424,11.1940299 25,11.1940299 C21.3522727,11.1940299 17.9136364,12.5380597 15.2780303,14.9164179 C14.6613636,15.4731343 14.619697,16.4179104 15.1848485,17.0253731 C15.75,17.6328358 16.7083333,17.6746269 17.3257576,17.1171642 C19.4075758,15.2380597 22.1174242,14.1791045 25,14.1791045 C31.2757576,14.1791045 36.3636364,19.1910448 36.3636364,25.3731343 C36.3636364,29.6813433 33.8712121,33.5485075 30.0166667,35.4201493 C29.2666667,35.7843284 28.9583333,36.6791045 29.3280303,37.419403 C29.6977273,38.158209 30.6060606,38.4619403 31.3568182,38.0977612 C36.2363636,35.7283582 39.3939394,30.8291045 39.3939394,25.3731343 M18.6818182,38.1164179 C19.4333333,38.4791045 20.3409091,38.1716418 20.7083333,37.4313433 C21.0757576,36.6910448 20.7651515,35.7970149 20.0128788,35.4343284 C16.5568182,33.769403 14.1590909,30.4746269 13.7128788,26.6783582 C13.6166667,25.8589552 12.8643939,25.2723881 12.0333333,25.3679104 C11.2022727,25.4626866 10.6060606,26.2029851 10.7022727,27.0216418 C11.2689394,31.8358209 14.3045455,36.0067164 18.6818182,38.1164179" id="Fill-13"></path>
                        </g>
                    </g>
                </g>
            </g>
        </g>
    </g>
</svg>