<?xml version="1.0" encoding="UTF-8" standalone="no"?>
<svg width="28px" height="28px" viewBox="0 0 28 28" version="1.1" xmlns="http://www.w3.org/2000/svg" xmlns:xlink="http://www.w3.org/1999/xlink">
    <!-- Generator: Sketch 43 (38999) - http://www.bohemiancoding.com/sketch -->
    <title>arrow_icon</title>
    <desc>Created with Sketch.</desc>
    <defs></defs>
    <g id="災損查詢服務網首頁" stroke="none" stroke-width="1" fill="none" fill-rule="evenodd">
        <g id="test9" transform="translate(-1315.000000, -423.000000)" fill="#00FBFF">
            <g id="＃1-index" transform="translate(-345.000000, -567.000000)">
                <g id="歷史統計按鈕" transform="translate(1354.000000, 971.000000)">
                    <g id="前往歷史災損統計" transform="translate(24.000000, 17.000000)">
                        <g id="arrow_icon" transform="translate(282.000000, 2.000000)">
                            <path d="M18.3260297,14.0805279 L11.973928,21.6998775 C11.693116,22.037199 11.7392157,22.5373566 12.0755457,22.8186644 C12.4118758,23.0999721 12.9135205,23.054368 13.1943326,22.7175423 L19.9700069,14.5893603 C20.0934353,14.4421385 20.1544059,14.2612093 20.1544059,14.0805279 C20.1544059,13.8995987 20.0934353,13.7189174 19.9700069,13.5716955 L13.1943326,5.44351354 C12.9135205,5.10668783 12.4121236,5.06108376 12.0755457,5.34239148 C11.7382243,5.62419489 11.6926203,6.12336118 11.973928,6.46117829" id="Shape"></path>
                            <path d="M14,27.0344828 C17.5258577,27.0344828 20.7247403,25.6345359 23.0711193,23.3601707 C25.515344,20.9909629 27.0344828,17.6728884 27.0344828,14 C27.0344828,6.80125395 21.198746,0.965517241 14,0.965517241 C6.80125395,0.965517241 0.965517241,6.80125395 0.965517241,14 C0.965517241,21.198746 6.80125395,27.0344828 14,27.0344828 Z M14,28 C6.2680135,28 0,21.7319865 0,14 C0,6.2680135 6.2680135,0 14,0 C21.7319865,0 28,6.2680135 28,14 C28,21.7319865 21.7319865,28 14,28 Z" id="Combined-Shape"></path>
                        </g>
                    </g>
                </g>
            </g>
        </g>
    </g>
</svg>