<?xml version="1.0" encoding="UTF-8" standalone="no"?>
<svg width="23px" height="43px" viewBox="0 0 23 43" version="1.1" xmlns="http://www.w3.org/2000/svg" xmlns:xlink="http://www.w3.org/1999/xlink">
    <!-- Generator: Sketch 43 (38999) - http://www.bohemiancoding.com/sketch -->
    <title>產業icon</title>
    <desc>Created with Sketch.</desc>
    <defs></defs>
    <g id="災損查詢服務網首頁" stroke="none" stroke-width="1" fill="none" fill-rule="evenodd">
        <g id="small" transform="translate(-266.000000, -2719.000000)" fill="#FFFFFF">
            <g id="＃4合作應用服務" transform="translate(-43.000000, 2510.000000)">
                <g id="all" transform="translate(54.000000, 121.000000)">
                    <g id="應用服務">
                        <g id="登入圖片" transform="translate(26.120672, 88.351607)">
                            <g id="產宴合作icon" transform="translate(184.000000, 0.000000)">
                                <g id="產業icon" transform="translate(45.000000, 0.000000)">
                                    <rect id="Rectangle-path" x="0.112241727" y="37.0867877" width="8.82072536" height="4.93925745"></rect>
                                    <rect id="Rectangle-path" x="13.071643" y="37.0867877" width="8.82096316" height="4.93925745"></rect>
                                    <path d="M0.112241727,36.7498314 L21.8926061,36.7498314 L21.8926061,5.27740023 L0.112241727,5.27740023 L0.112241727,36.7498314 Z M15.5373939,7.46903999 L19.675832,7.46903999 L19.675832,12.5767756 L15.5373939,12.5767756 L15.5373939,7.46903999 Z M15.5373939,14.1450462 L19.675832,14.1450462 L19.675832,19.2527818 L15.5373939,19.2527818 L15.5373939,14.1450462 Z M15.5373939,21.0358027 L19.675832,21.0358027 L19.675832,26.1435383 L15.5373939,26.1435383 L15.5373939,21.0358027 Z M15.5373939,28.5776917 L19.675832,28.5776917 L19.675832,33.6854273 L15.5373939,33.6854273 L15.5373939,28.5776917 Z M8.93296709,7.46903999 L13.071643,7.46903999 L13.071643,12.5767756 L8.93296709,12.5767756 L8.93296709,7.46903999 Z M8.93296709,14.1450462 L13.071643,14.1450462 L13.071643,19.2527818 L8.93296709,19.2527818 L8.93296709,14.1450462 Z M8.93296709,21.0358027 L13.071643,21.0358027 L13.071643,26.1435383 L8.93296709,26.1435383 L8.93296709,21.0358027 Z M8.93296709,28.5776917 L13.071643,28.5776917 L13.071643,33.6854273 L8.93296709,33.6854273 L8.93296709,28.5776917 Z M2.44767816,7.46903999 L6.58635404,7.46903999 L6.58635404,12.5767756 L2.44767816,12.5767756 L2.44767816,7.46903999 Z M2.44767816,14.1450462 L6.58635404,14.1450462 L6.58635404,19.2527818 L2.44767816,19.2527818 L2.44767816,14.1450462 Z M2.44767816,21.0358027 L6.58635404,21.0358027 L6.58635404,26.1435383 L2.44767816,26.1435383 L2.44767816,21.0358027 Z M2.44767816,28.5776917 L6.58635404,28.5776917 L6.58635404,33.6854273 L2.44767816,33.6854273 L2.44767816,28.5776917 Z" id="Shape"></path>
                                    <polygon id="Shape" points="17.6064941 1.99848312 17.6064941 0.0282378879 4.39811597 0.0282378879 4.39811597 1.99848312 0.112241727 1.99848312 0.112241727 4.94068121 21.8923683 4.94068121 21.8923683 1.99848312"></polygon>
                                </g>
                            </g>
                        </g>
                    </g>
                </g>
            </g>
        </g>
    </g>
</svg>