<?xml version="1.0" encoding="UTF-8" standalone="no"?>
<svg width="57px" height="57px" viewBox="0 0 57 57" version="1.1" xmlns="http://www.w3.org/2000/svg" xmlns:xlink="http://www.w3.org/1999/xlink">
    <!-- Generator: Sketch 44.1 (41455) - http://www.bohemiancoding.com/sketch -->
    <title>earth</title>
    <desc>Created with Sketch.</desc>
    <defs></defs>
    <g id="災損查詢服務網首頁" stroke="none" stroke-width="1" fill="none" fill-rule="evenodd">
        <g id="earth" fill-rule="nonzero" fill="#FFFFFF">
            <path d="M28.5,0 C44.2149,0 57,12.7857333 57,28.5 C57,44.2149 44.2149,57 28.5,57 C12.7851,57 0,44.2149 0,28.5 C0,12.7857333 12.7851,0 28.5,0 Z M28.3380682,55.1064668 C42.5622724,55.1064668 54.1898798,43.7664542 54.6887431,29.637047 C54.1344505,29.4268509 53.0423621,29.529305 53.0423621,29.529305 L51.76287,30.7759396 L49.7898522,28.3025001 C49.7898522,28.3025001 48.5360951,25.5679681 48.2431119,24.1025444 C48.0405311,23.0912237 48.066926,21.0361934 48.066926,21.0361934 L47.7508472,18.1079901 L48.6212186,16.0820435 C48.6212186,16.0820435 49.6190638,14.981921 49.9257859,15.0568418 C50.2325079,15.1317627 50.766463,15.6325676 50.766463,15.6325676 C50.766463,15.6325676 51.0700042,15.592908 51.1953799,15.5334185 C50.6417472,14.5723333 50.0293858,13.6502467 49.3629149,12.7698027 C48.8580831,12.868345 48.2431119,12.5889014 48.2431119,12.5889014 L47.4599495,13.225601 L46.6328393,13.225601 L45.0758655,12.0568024 L43.817662,11.3495377 L43.817662,10.9193253 L43.4401717,10.4129731 L39.5630419,9.96449593 L36.605363,10.1596135 L34.3730806,10.9193253 L32.5278815,15.4739291 L28.984083,17.6076176 L25.7381719,20.4948393 L24.2580786,21.6641376 L22.9587903,23.8070801 L21.1791151,23.054208 L18.557443,22.7693196 C18.557443,22.7693196 15.440207,25.1508809 16.338293,26.9302767 C17.1281599,28.4961714 19.2463496,26.451056 19.739934,27.8510413 C19.925358,28.3771925 19.5954219,29.0553723 20.1688509,29.4222239 C20.4921882,29.6297761 21.1791151,30.1754548 21.1791151,30.1754548 L22.5602325,31.2767691 L22.5602325,33.0257859 L20.8672011,32.1565588 C20.8672011,32.1565588 20.0289165,31.7971753 19.1803209,31.1024707 C17.9665546,30.1102417 16.9260462,29.5736784 14.8737822,27.8510413 C12.8215181,26.1284041 13.5462795,27.0746259 13.0151768,25.9275488 C12.4840741,24.7804717 12.5453478,23.1170024 12.064301,21.7831166 C11.6578197,20.6554608 10.799986,18.4345211 10.799986,18.4345211 L11.5073689,15.4739291 L13.607742,12.9938797 L14.0373187,11.0512184 L15.0653996,9.28834745 C15.0653996,9.28834745 14.2686405,7.06402442 13.994427,6.54059547 C6.76222817,11.2561265 1.96957671,19.4240291 1.96957671,28.6931476 C1.96957671,43.2574888 13.798445,55.1064668 28.3380682,55.1064668 Z M40.1629773,36.5503731 C40.1629773,36.5503731 42.4544752,39.9031425 42.0803277,40.3374156 C41.7061801,40.7716886 41.3863803,42.4252974 41.3863803,42.4252974 L38.9265441,44.0502253 L37.9114934,46.3304499 C37.9114934,46.3304499 37.9524055,46.7098604 35.745793,48.3934121 C33.5391805,50.0769637 28.6666845,52.7249056 28.6666845,52.7249056 L26.3637307,53.8016647 L25.6901437,52.7249056 L26.3637307,51.4242047 C26.3637307,51.4242047 27.4519613,49.5356506 27.6234266,48.9008789 C27.7948919,48.2661072 27.6234266,46.7607569 27.6234266,46.7607569 L26.9506905,43.7277677 C26.9506905,43.7277677 24.5244231,42.2799809 23.9957942,41.5497855 C23.4671653,40.8195903 23.1139826,39.0954112 23.1139826,39.0954112 L22.2203081,35.522558 L24.7437445,33.1429591 L29.3937231,32.1910345 L36.2505952,36.0572815 L40.1629773,36.5503731 Z" id="Shape"></path>
        </g>
    </g>
</svg>