<?xml version="1.0" encoding="UTF-8" standalone="no"?>
<svg width="50px" height="50px" viewBox="0 0 50 50" version="1.1" xmlns="http://www.w3.org/2000/svg" xmlns:xlink="http://www.w3.org/1999/xlink">
    <!-- Generator: Sketch 43 (38999) - http://www.bohemiancoding.com/sketch -->
    <title>future_icon</title>
    <desc>Created with Sketch.</desc>
    <defs></defs>
    <g id="災損查詢服務網首頁" stroke="none" stroke-width="1" fill="none" fill-rule="evenodd">
        <g id="test9" transform="translate(-146.000000, -2581.000000)" fill="#FFFFFF">
            <g id="#3-TLAS-3.0" transform="translate(0.000000, 1751.000000)">
                <g id="模組icon" transform="translate(123.000000, 281.000000)">
                    <g id="未來發展" transform="translate(0.000000, 527.000000)">
                        <g id="future_icon" transform="translate(23.000000, 22.000000)">
                            <path d="M46.8491837,13.5430612 C41.2144898,2.93081633 28.2180612,-2.83397959 16.6757143,1.39561224 C4.56040816,5.83438776 -2.20489796,18.2915306 0.650204082,30.8741837 C1.05632653,32.662449 3.79714286,31.9037755 3.39204082,30.1185714 C0.893571429,19.1078571 7.04867347,7.13540816 18.1813265,3.89153061 C28.2991837,0.943061224 39.6680612,5.28642857 44.3940816,14.9777551 C49.04,24.5068367 46.4277551,36.8012245 37.4195918,42.8634694 C28.8486735,48.6308163 17.8083673,47.9578571 10.0935714,41.2389796 C10.815,40.5170408 11.5364286,39.7956122 12.2583673,39.0741837 C12.2629592,39.070102 12.265,39.065 12.2695918,39.0609184 C12.2808163,39.0476531 12.292551,39.0328571 12.3032653,39.0185714 C12.742551,38.5394898 12.7568367,37.9741837 12.5267347,37.515 C12.3553061,37.0517347 11.9558163,36.6864286 11.3318367,36.6553061 C11.309898,36.6527551 11.2884694,36.6496939 11.2665306,36.6491837 C11.2614286,36.6486735 11.2568367,36.6476531 11.2522449,36.6476531 L4.83489796,36.6476531 C4.05938776,36.6476531 3.41295918,37.2940816 3.41295918,38.0695918 L3.41295918,44.487449 C3.41295918,45.7277551 4.96244898,46.370102 5.8394898,45.4930612 C6.58591837,44.7466327 7.33234694,43.9996939 8.07826531,43.2537755 C16.8940816,51.0109184 29.8782653,51.8252041 39.5160204,44.8384694 C49.1246939,37.8731633 52.4359184,24.0629592 46.8491837,13.5430612" id="Fill-1"></path>
                            <path d="M23.3302041,8.33285714 L23.3302041,24.7308163 C23.3302041,25.1491837 23.4827551,25.4685714 23.7118367,25.6956122 C23.7230612,25.7078571 23.7353061,25.720102 23.7470408,25.7328571 C23.7613265,25.745102 23.7740816,25.759898 23.7883673,25.7716327 C24.0154082,25.9991837 24.3337755,26.1522449 24.7521429,26.1522449 L34.9011224,26.1522449 C36.7347959,26.1522449 36.7347959,23.3083673 34.9011224,23.3083673 L26.1745918,23.3083673 L26.1745918,8.33183673 C26.1740816,6.49918367 23.3302041,6.49918367 23.3302041,8.33285714" id="Fill-4"></path>
                        </g>
                    </g>
                </g>
            </g>
        </g>
    </g>
</svg>