<?xml version="1.0" encoding="UTF-8" standalone="no"?>
<svg width="10px" height="12px" viewBox="0 0 10 12" version="1.1" xmlns="http://www.w3.org/2000/svg" xmlns:xlink="http://www.w3.org/1999/xlink">
    <!-- Generator: Sketch 43 (38999) - http://www.bohemiancoding.com/sketch -->
    <title>lock</title>
    <desc>Created with Sketch.</desc>
    <defs></defs>
    <g id="災損查詢服務網首頁" stroke="none" stroke-width="1" fill="none" fill-rule="evenodd">
        <g id="sign" transform="translate(-288.000000, -94.000000)" fill="#E8E8E8">
            <g id="忘記密碼" transform="translate(288.000000, 93.237037)">
                <path d="M5.60933195,8.47732535 L5.60933195,9.81172627 C5.60933195,10.0929843 5.33681918,10.3212518 5.00005543,10.3212518 C4.66351324,10.3212518 4.39077892,10.0929843 4.39077892,9.81172627 L4.39077892,8.47732535 C4.13443967,8.31983566 3.9660578,8.06803743 3.9660578,7.78159146 C3.9660578,7.30430505 4.42910795,6.91706568 5.00005543,6.91706568 C5.57100292,6.91706568 6.03405307,7.30430505 6.03405307,7.78159146 C6.03405307,8.06803743 5.8656712,8.32002094 5.60933195,8.47732535 L5.60933195,8.47732535 Z M9.11389048,5.55968979 C7.49365805,5.2209943 7.18813358,4.83264324 5.09997678,4.81244751 C5.08823436,4.81207694 4.91165495,4.81207694 4.90013409,4.81244751 C2.81197729,4.83264324 2.50623126,5.2209943 0.886220389,5.55968979 C0.300871822,5.6819759 0,5.89152984 0,6.30081777 L0,11.2146815 C0,11.6239695 0.300871822,11.8337087 0.886220389,11.9558095 C2.50645282,12.2946903 2.81197729,12.6830413 4.90013409,12.7032371 C4.91187651,12.7036076 5.08845592,12.7036076 5.09997678,12.7032371 C7.18813358,12.6830413 7.49387961,12.2946903 9.11389048,11.9558095 C9.69923905,11.8337087 10.0001109,11.6239695 10.0001109,11.2146815 L10.0001109,6.30081777 C10.0001109,5.89152984 9.69923905,5.6819759 9.11389048,5.55968979 L9.11389048,5.55968979 Z M2.50756059,3.15306197 C2.50756059,2.38673564 3.25287194,1.76344701 4.16922382,1.76344701 L5.83088705,1.76344701 C6.74746049,1.76344701 7.49255028,2.38673564 7.49255028,3.15306197 L7.49255028,4.50562052 C7.86365507,4.59807624 8.20418525,4.70720733 8.60032577,4.82189689 L8.60032577,3.15306197 C8.60032577,1.87591318 7.35828789,0.837037037 5.83088705,0.837037037 L4.16922382,0.837037037 C2.64204453,0.837037037 1.3997851,1.87591318 1.3997851,3.15306197 L1.3997851,4.82189689 C1.79592562,4.70720733 2.1364558,4.59807624 2.50756059,4.50562052 L2.50756059,3.15306197 Z" id="lock"></path>
            </g>
        </g>
    </g>
</svg>