<?xml version="1.0" encoding="UTF-8" standalone="no"?>
<svg width="363px" height="82px" viewBox="0 0 363 82" version="1.1" xmlns="http://www.w3.org/2000/svg" xmlns:xlink="http://www.w3.org/1999/xlink">
    <!-- Generator: Sketch 43 (38999) - http://www.bohemiancoding.com/sketch -->
    <title>TLAS_ncdr</title>
    <desc>Created with Sketch.</desc>
    <defs></defs>
    <g id="災損查詢服務網首頁" stroke="none" stroke-width="1" fill="none" fill-rule="evenodd">
        <g id="svg" transform="translate(-502.000000, -188.000000)">
            <g id="＃1-index" transform="translate(-345.000000, -567.000000)">
                <g id="TLAS_ncdr" transform="translate(847.000000, 755.000000)">
                    <polygon id="Shape" fill="#00FBFF" fill-rule="nonzero" points="140.712 57.4967213 31.284 57.4967213 31.284 56.8327869 140.448 56.8327869 172.392 28.8147541 172.92 29.3459016"></polygon>
                    <polygon id="Shape" fill="#00FBFF" fill-rule="nonzero" points="192.588 65.4639344 140.052 65.4639344 140.052 61.0819672 26.4 61.0819672 26.4 60.4180328 140.712 60.4180328 140.712 64.8 192.324 64.8 204.732 54.0442623 240.636 54.0442623 240.636 54.7081967 204.996 54.7081967"></polygon>
                    <ellipse id="Oval" stroke="#00FBFF" stroke-width="0.5" cx="242.352" cy="54.3098361" rx="1.584" ry="1.59344262"></ellipse>
                    <polygon id="Shape" fill="#00FBFF" fill-rule="nonzero" points="228.228 77.6803279 227.568 77.6803279 227.568 58.6918033 206.844 58.6918033 194.436 69.447541 136.224 69.447541 136.224 64.8 22.572 64.8 22.572 64.1360656 136.884 64.1360656 136.884 68.7836066 194.172 68.7836066 206.58 58.0278689 228.228 58.0278689"></polygon>
                    <path d="M360.624,27.0885246 C359.7,27.0885246 358.908,27.752459 358.776,28.6819672 L175.956,28.6819672 L175.956,29.3459016 L358.776,29.3459016 C358.908,30.2754098 359.7,30.9393443 360.624,30.9393443 C361.68,30.9393443 362.472,30.142623 362.472,29.0803279 C362.472,28.0180328 361.68,27.0885246 360.624,27.0885246 Z" id="Shape" fill="#00FBFF" fill-rule="nonzero"></path>
                    <ellipse id="Oval" stroke="#00FBFF" stroke-width="0.5" fill="#00FBFF" fill-rule="nonzero" cx="227.832" cy="79.2737705" rx="1.584" ry="1.59344262"></ellipse>
                    <path d="M351.912,34.7901639 C350.988,34.7901639 350.328,35.4540984 350.064,36.2508197 L312.84,36.2508197 L312.84,36.9147541 L350.064,36.9147541 C350.196,37.8442623 350.988,38.6409836 351.912,38.6409836 C352.968,38.6409836 353.76,37.8442623 353.76,36.7819672 C353.76,35.7196721 352.968,34.7901639 351.912,34.7901639 Z M351.912,37.9770492 C351.252,37.9770492 350.724,37.4459016 350.724,36.7819672 C350.724,36.1180328 351.252,35.4540984 351.912,35.4540984 C352.572,35.4540984 353.1,35.9852459 353.1,36.6491803 C353.1,37.3131148 352.704,37.9770492 351.912,37.9770492 Z" id="Shape" fill="#00FBFF" fill-rule="nonzero"></path>
                    <polygon id="Shape" fill="#00FBFF" fill-rule="nonzero" points="23.76 64.8 17.82 64.8 26.928 56.8327869 32.868 56.8327869"></polygon>
                    <polygon id="Shape" fill="#00FBFF" fill-rule="nonzero" points="15.18 64.8 9.24 64.8 18.348 56.8327869 24.288 56.8327869"></polygon>
                    <polygon id="Shape" fill="#00FBFF" fill-rule="nonzero" points="6.6 64.8 0.66 64.8 9.768 56.8327869 15.708 56.8327869"></polygon>
                    <rect id="Rectangle-path" fill="#00FBFF" fill-rule="nonzero" x="297.132" y="53.7786885" width="3.3" height="15.6688525"></rect>
                    <rect id="Rectangle-path" fill="#00FBFF" fill-rule="nonzero" x="313.632" y="53.7786885" width="3.3" height="15.6688525"></rect>
                    <ellipse id="Oval" stroke="#00FBFF" stroke-width="0.5" fill="#00FBFF" fill-rule="nonzero" cx="248.952" cy="54.3098361" rx="1.584" ry="1.59344262"></ellipse>
                    <path d="M261.756,64.0032787 C260.7,64.0032787 259.908,63.0737705 259.908,62.0114754 C259.908,60.9491803 260.7,60.152459 261.756,60.152459 C262.812,60.152459 263.604,60.9491803 263.604,62.0114754 C263.604,63.0737705 262.812,64.0032787 261.756,64.0032787 Z M261.756,60.8163934 C261.096,60.8163934 260.568,61.347541 260.568,62.0114754 C260.568,62.6754098 261.096,63.3393443 261.756,63.3393443 C262.416,63.3393443 262.944,62.8081967 262.944,62.0114754 C262.944,61.347541 262.416,60.8163934 261.756,60.8163934 Z" id="Shape" fill="#00FBFF" fill-rule="nonzero"></path>
                    <rect id="Rectangle-path" fill="#00FBFF" fill-rule="nonzero" x="305.316" y="53.7786885" width="3.3" height="15.6688525"></rect>
                    <polygon id="Shape" fill="#00FBFF" fill-rule="nonzero" points="256.08 54.7081967 250.404 54.7081967 250.404 54.0442623 255.816 54.0442623 294.096 20.5819672 294.492 21.1131148"></polygon>
                    <path d="M356.4,30.9393443 C355.476,30.9393443 354.684,31.6032787 354.552,32.5327869 L297.264,32.5327869 L267.696,57.895082 L257.4,57.895082 C257.268,56.9655738 256.476,56.3016393 255.552,56.3016393 C254.496,56.3016393 253.704,57.0983607 253.704,58.1606557 C253.704,59.2229508 254.496,60.152459 255.552,60.152459 C256.476,60.152459 257.268,59.4885246 257.4,58.5590164 L289.08,58.5590164 L289.08,69.447541 L292.38,69.447541 L292.38,54.1770492 L289.08,54.1770492 L289.08,57.895082 L268.62,57.895082 L297.396,33.1967213 L354.42,33.1967213 C354.552,34.1262295 355.344,34.7901639 356.268,34.7901639 C357.324,34.7901639 358.116,33.9934426 358.116,32.9311475 C358.116,31.8688525 357.456,30.9393443 356.4,30.9393443 Z M256.608,58.2934426 C256.608,58.957377 256.08,59.4885246 255.42,59.4885246 C254.76,59.4885246 254.232,58.957377 254.232,58.1606557 C254.232,57.4967213 254.76,56.9655738 255.42,56.9655738 C256.08,56.9655738 256.608,57.4967213 256.608,58.1606557 L256.608,58.2934426 Z M356.4,34.1262295 C355.74,34.1262295 355.212,33.595082 355.212,32.9311475 C355.212,32.2672131 355.74,31.7360656 356.4,31.7360656 C357.06,31.7360656 357.588,32.2672131 357.588,32.9311475 C357.588,33.595082 357.06,34.1262295 356.4,34.1262295 Z" id="Shape" fill="#00FBFF" fill-rule="nonzero"></path>
                    <polygon id="Shape" fill="#00FBFF" fill-rule="nonzero" points="280.896 60.0196721 280.896 61.7459016 263.076 61.7459016 263.076 62.4098361 280.896 62.4098361 280.896 69.447541 284.196 69.447541 284.196 60.0196721"></polygon>
                    <g id="Group" transform="translate(271.920000, 62.409836)">
                        <rect id="Rectangle-path" fill="#00FBFF" fill-rule="nonzero" transform="translate(2.458764, 4.128079) rotate(-90.000000) translate(-2.458764, -4.128079) " x="-0.115236" y="2.80020984" width="5.148" height="2.6557377"></rect>
                        <g>
                            <rect id="Rectangle-path" x="1.452" y="1.85901639" width="1.98" height="4.5147541"></rect>
                            <path d="M0.792,1.19508197 L0.792,7.03770492 L4.092,7.03770492 L4.092,1.19508197 L0.792,1.19508197 Z M3.432,6.37377049 L1.452,6.37377049 L1.452,1.85901639 L3.432,1.85901639 L3.432,6.37377049 Z" id="Shape" fill="#00FBFF" fill-rule="nonzero"></path>
                        </g>
                    </g>
                    <path d="M307.956,50.9901639 L248.292,50.9901639 L248.292,39.4377049 L305.184,39.4377049 C307.428,39.4377049 309.276,37.3131148 309.276,34.3918033 C309.276,31.4704918 307.428,29.3459016 305.184,29.3459016 L262.416,29.3459016 C259.116,29.3459016 255.816,28.1508197 253.308,26.0262295 L253.308,26.0262295 C246.576,20.3163934 246.444,9.95901639 253.044,3.98360656 L253.44,3.5852459 L253.44,3.5852459 C255.816,1.46065574 258.984,0.132786885 262.284,0.132786885 L316.932,0.132786885 L316.932,11.552459 L264.924,11.552459 C262.812,11.552459 261.096,13.4114754 261.096,15.5360656 L261.096,15.5360656 C261.096,17.6606557 262.812,19.1213115 264.924,19.1213115 L307.692,19.1213115 C327.096,19.1213115 326.964,50.9901639 307.956,50.9901639 Z" id="Shape" fill="#00FBFF" fill-rule="nonzero"></path>
                    <path d="M237.732,2.78852459 C235.092,1.06229508 231.792,0.132786885 227.304,0.132786885 L187.968,0.132786885 C183.48,0.132786885 179.784,0.929508197 177.012,2.6557377 C174.108,4.5147541 172.524,7.1704918 172.524,10.6229508 L172.524,50.857377 L186.648,50.857377 L186.648,19.9180328 L186.648,19.9180328 L186.648,15.8016393 C186.648,13.2786885 188.76,11.552459 191.268,11.552459 L223.74,11.552459 C226.248,11.552459 228.228,13.2786885 228.228,15.8016393 L228.228,18.9885246 L193.908,18.9885246 L193.908,29.3459016 L228.228,29.3459016 L228.228,50.857377 L242.22,50.857377 L242.22,10.7557377 C242.088,7.30327869 240.636,4.64754098 237.732,2.78852459 Z" id="Shape" fill="#00FBFF" fill-rule="nonzero"></path>
                    <polygon id="Shape" fill="#00FBFF" fill-rule="nonzero" points="95.568 11.6852459 72.6 11.6852459 72.6 50.9901639 55.836 50.9901639 55.836 11.6852459 32.868 11.6852459 32.868 0.26557377 95.7 0.26557377 95.7 11.6852459"></polygon>
                    <polygon id="Shape" fill="#00FBFF" fill-rule="nonzero" points="166.584 50.9901639 101.64 50.9901639 101.64 0.132786885 115.368 0.132786885 115.368 39.4377049 166.584 39.4377049"></polygon>
                </g>
            </g>
        </g>
    </g>
</svg>