<?xml version="1.0" encoding="UTF-8" standalone="no"?>
<svg width="51px" height="58px" viewBox="0 0 51 58" version="1.1" xmlns="http://www.w3.org/2000/svg" xmlns:xlink="http://www.w3.org/1999/xlink">
    <!-- Generator: Sketch 43 (38999) - http://www.bohemiancoding.com/sketch -->
    <title>module_icon</title>
    <desc>Created with Sketch.</desc>
    <defs></defs>
    <g id="災損查詢服務網首頁" stroke="none" stroke-width="1" fill="none" fill-rule="evenodd" opacity="0.896805037">
        <g id="test9" transform="translate(-146.000000, -2344.000000)" fill="#FFFFFF">
            <g id="#3-TLAS-3.0" transform="translate(0.000000, 1751.000000)">
                <g id="模組icon" transform="translate(123.000000, 281.000000)">
                    <g id="模組介紹" transform="translate(0.000000, 293.000000)">
                        <path d="M69.4322691,58.0195839 L61.3777678,53.365872 L61.3777678,42.0895703 L69.4322691,37.4358584 L69.4322691,58.0195839 Z M49.9224772,71.4437526 L49.9224772,62.136329 L59.7668676,56.4086836 L67.8213688,61.0623955 L49.9224772,71.4437526 Z M57.7979895,44.0584484 L57.7979895,53.365872 L49.7434882,58.0195839 L49.7434882,48.7121602 L57.7979895,44.0584484 Z M48.132588,45.4903597 L40.0780867,40.8366479 L48.132588,36.182936 L56.1870893,40.8366479 L48.132588,45.4903597 Z M46.3426988,58.0195839 L38.2881976,53.365872 L38.2881976,44.0584484 L46.3426988,48.7121602 L46.3426988,58.0195839 Z M46.3426988,71.4437526 L28.4438071,61.0623955 L36.4983084,56.4086836 L46.3426988,62.136329 L46.3426988,71.4437526 Z M26.653918,37.2568695 L34.7084192,41.9105814 L34.7084192,53.1868831 L26.653918,57.840595 L26.653918,37.2568695 Z M46.3426988,23.8327008 L46.3426988,33.1401244 L36.4983084,38.8677698 L28.4438071,34.2140579 L46.3426988,23.8327008 Z M49.9224772,23.8327008 L67.8213688,34.2140579 L59.7668676,38.8677698 L49.9224772,33.1401244 L49.9224772,23.8327008 Z M73.0120474,59.9902518 L73.0120474,35.2879914 L73.0120474,34.7510247 C73.1910364,34.3930468 73.0120474,33.8560801 72.8312686,33.3191133 C72.6540696,32.9611355 72.1171029,32.6031577 71.759125,32.4241688 C71.5801361,32.2451798 71.4011472,32.2451798 71.2221583,32.0661909 L49.7434882,19.7159557 C49.5627094,19.7159557 49.3855104,19.5369668 49.2065215,19.5369668 C49.0275326,19.1789889 48.4905658,19 48.132588,19 C47.7746102,19 47.2376434,19.1789889 46.8796656,19.5369668 C46.7006767,19.5369668 46.5216877,19.7159557 46.3426988,19.7159557 L24.8640288,32.0661909 C24.6850399,32.2451798 24.506051,32.4241688 24.3270621,32.4241688 C23.9690842,32.6031577 23.4321175,32.9611355 23.2531286,33.3191133 C23.0741396,33.6770912 22.8951507,34.2140579 23.0741396,34.7510247 L23.0741396,35.2879914 L23.0741396,59.9902518 L23.0741396,60.5254287 C22.8951507,60.8851964 23.0741396,61.4203733 23.2531286,61.95734 C23.4321175,62.3153179 23.9690842,62.6750856 24.3270621,62.8522846 C24.506051,63.0312735 24.6850399,63.0312735 24.8640288,63.2102625 L46.3426988,75.5604977 C46.5216877,75.7394866 46.7006767,75.7394866 46.8796656,75.7394866 C47.2376434,76.0992544 47.5956212,76.2764534 48.132588,76.2764534 C48.6695547,76.2764534 49.0275326,76.0992544 49.3855104,75.7394866 C49.5627094,75.7394866 49.7434882,75.5604977 49.9224772,75.5604977 L71.4011472,63.2102625 C71.5801361,63.0312735 71.759125,63.0312735 71.936324,62.8522846 C72.2960918,62.6750856 72.8312686,62.4943068 73.0120474,61.95734 C73.1910364,61.5993622 73.3700253,61.0623955 73.1910364,60.5254287 C73.0120474,60.3464398 73.0120474,60.1674509 73.0120474,59.9902518 L73.0120474,59.9902518 Z" id="module_icon"></path>
                    </g>
                </g>
            </g>
        </g>
    </g>
</svg>