<?xml version="1.0" encoding="UTF-8" standalone="no"?>
<svg width="22px" height="45px" viewBox="0 0 22 45" version="1.1" xmlns="http://www.w3.org/2000/svg" xmlns:xlink="http://www.w3.org/1999/xlink">
    <!-- Generator: Sketch 43 (38999) - http://www.bohemiancoding.com/sketch -->
    <title>Shape</title>
    <desc>Created with Sketch.</desc>
    <defs></defs>
    <g id="災損查詢服務網首頁" stroke="none" stroke-width="1" fill="none" fill-rule="evenodd">
        <g id="test9" transform="translate(-1309.000000, -3557.000000)" fill="#00FBFF">
            <g id="＃4合作應用服務" transform="translate(-2172.000000, 288.000000)">
                <g id="all" transform="translate(2328.000000, 2830.000000)">
                    <g id="相關單位" transform="translate(0.000000, 290.633270)">
                        <path d="M1169.9199,171.016733 L1154.14995,189.954805 C1153.45279,190.793225 1153.56724,192.036379 1154.40223,192.735576 C1155.23721,193.434772 1156.48261,193.321422 1157.17977,192.484234 L1174.00129,172.281448 C1174.30772,171.915524 1174.45909,171.465821 1174.45909,171.016733 C1174.45909,170.567029 1174.30772,170.117942 1174.00129,169.752018 L1157.17977,149.549232 C1156.48261,148.712044 1155.23783,148.598694 1154.40223,149.29789 C1153.56478,149.998319 1153.45156,151.239009 1154.14995,152.078661" id="Shape" transform="translate(1164.075551, 171.016733) scale(1, -1) translate(-1164.075551, -171.016733) "></path>
                    </g>
                </g>
            </g>
        </g>
    </g>
</svg>