<?xml version="1.0" encoding="UTF-8" standalone="no"?>
<svg width="40px" height="38px" viewBox="0 0 40 38" version="1.1" xmlns="http://www.w3.org/2000/svg" xmlns:xlink="http://www.w3.org/1999/xlink">
    <!-- Generator: Sketch 43 (38999) - http://www.bohemiancoding.com/sketch -->
    <title>公家機關</title>
    <desc>Created with Sketch.</desc>
    <defs></defs>
    <g id="災損查詢服務網首頁" stroke="none" stroke-width="1" fill="none" fill-rule="evenodd">
        <g id="small" transform="translate(-74.000000, -2724.000000)" fill="#FFFFFF">
            <g id="＃4合作應用服務" transform="translate(-43.000000, 2510.000000)">
                <g id="all" transform="translate(54.000000, 121.000000)">
                    <g id="應用服務">
                        <g id="登入圖片" transform="translate(26.120672, 88.351607)">
                            <g id="公家單位icon" transform="translate(0.000000, 5.000000)">
                                <g id="公家機關" transform="translate(37.000000, 0.000000)">
                                    <path d="M5.35796432,9.88331921 L33.8902134,9.88331921 C34.9356698,9.88331921 35.2841553,8.47769159 34.3693809,7.99450709 L20.081476,0.131777589 C19.7765512,-0.0439258632 19.4280658,-0.0439258632 19.123141,0.131777589 L4.87879678,7.95058123 C3.96402239,8.47769159 4.31250787,9.88331921 5.35796432,9.88331921 Z M19.5587478,3.68977251 C20.6913256,3.68977251 21.6061,4.61221563 21.6061,5.75428807 C21.6061,6.89636052 20.6913256,7.81880364 19.5587478,7.81880364 C18.42617,7.81880364 17.5113956,6.89636052 17.5113956,5.75428807 C17.5113956,4.61221563 18.42617,3.68977251 19.5587478,3.68977251 Z M39.204617,34.1743215 L39.204617,36.9855768 C39.204617,37.249132 38.9868136,37.4248354 38.7690101,37.4248354 L0.435606856,37.4248354 C0.174242742,37.4248354 0,37.2052061 0,36.9855768 L0,34.1743215 C0,33.7350629 0.348485484,33.4275819 0.740531654,33.4275819 L3.57197622,33.4275819 L3.57197622,30.484549 C3.57197622,30.0892163 3.9204617,29.7378094 4.31250787,29.7378094 L7.14395243,29.7378094 L7.14395243,12.9581296 C7.14395243,12.2992417 7.66668066,11.7721313 8.32009094,11.7721313 L9.53979014,11.7721313 C10.1932004,11.7721313 10.7159286,12.2992417 10.7159286,12.9581296 L10.7159286,29.7378094 L14.2879049,29.7378094 L14.2879049,12.9581296 C14.2879049,12.2992417 14.8106331,11.7721313 15.4640434,11.7721313 L16.6837426,11.7721313 C17.3371529,11.7721313 17.8598811,12.2992417 17.8598811,12.9581296 L17.8598811,29.7378094 L21.4318573,29.7378094 L21.4318573,12.9581296 C21.4318573,12.2992417 21.9545855,11.7721313 22.6079958,11.7721313 L23.827695,11.7721313 C24.4811053,11.7721313 25.0038335,12.2992417 25.0038335,12.9581296 L25.0038335,29.7378094 L28.5758097,29.7378094 L28.5758097,12.9581296 C28.5758097,12.2992417 29.098538,11.7721313 29.7519482,11.7721313 L30.9716474,11.7721313 C31.6250577,11.7721313 32.1477859,12.2992417 32.1477859,12.9581296 L32.1477859,29.7378094 L34.9792305,29.7378094 C35.3712767,29.7378094 35.7197622,30.0892163 35.7197622,30.484549 L35.7197622,33.4275819 L38.5512067,33.4275819 C38.8561315,33.4275819 39.204617,33.7350629 39.204617,34.1743215 Z" id="Shape"></path>
                                </g>
                            </g>
                        </g>
                    </g>
                </g>
            </g>
        </g>
    </g>
</svg>