<?xml version="1.0" encoding="UTF-8" standalone="no"?>
<svg width="20px" height="28px" viewBox="0 0 20 28" version="1.1" xmlns="http://www.w3.org/2000/svg" xmlns:xlink="http://www.w3.org/1999/xlink">
    <!-- Generator: Sketch 43 (38999) - http://www.bohemiancoding.com/sketch -->
    <title>Combined Shape</title>
    <desc>Created with Sketch.</desc>
    <defs></defs>
    <g id="災損查詢服務網首頁" stroke="none" stroke-width="1" fill="none" fill-rule="evenodd">
        <g id="test9" transform="translate(-666.000000, -3830.000000)" fill="#00C8ED">
            <path d="M685.998189,3831.66455 C685.998189,3831.83844 685.931172,3831.99239 685.797138,3832.12643 L676.460062,3841.4635 C676.326028,3841.59754 676.17207,3841.66455 675.998189,3841.66455 C675.826118,3841.66455 675.672161,3841.59754 675.538127,3841.4635 L666.201051,3832.12643 C666.067017,3831.99239 666,3831.83844 666,3831.66455 C666,3831.49067 666.067017,3831.33671 666.201051,3831.20268 L667.202681,3830.20105 C667.336714,3830.06702 667.490672,3830 667.664554,3830 C667.836624,3830 667.990581,3830.06702 668.124615,3830.20105 L676,3838.07644 L683.875385,3830.20105 C684.009419,3830.06702 684.163376,3830 684.335446,3830 C684.509328,3830 684.663286,3830.06702 684.797319,3830.20105 L685.798949,3831.20268 C685.932983,3831.33671 686,3831.49067 686,3831.66455 L685.998189,3831.66455 Z M685.998189,3847.66455 C685.998189,3847.83844 685.931172,3847.99239 685.797138,3848.12643 L676.460062,3857.4635 C676.326028,3857.59754 676.17207,3857.66455 675.998189,3857.66455 C675.826118,3857.66455 675.672161,3857.59754 675.538127,3857.4635 L666.201051,3848.12643 C666.067017,3847.99239 666,3847.83844 666,3847.66455 C666,3847.49067 666.067017,3847.33671 666.201051,3847.20268 L667.202681,3846.20105 C667.336714,3846.06702 667.490672,3846 667.664554,3846 C667.836624,3846 667.990581,3846.06702 668.124615,3846.20105 L676,3854.07644 L683.875385,3846.20105 C684.009419,3846.06702 684.163376,3846 684.335446,3846 C684.509328,3846 684.663286,3846.06702 684.797319,3846.20105 L685.798949,3847.20268 C685.932983,3847.33671 686,3847.49067 686,3847.66455 L685.998189,3847.66455 Z M685.797138,3840.43217 L676.460062,3849.76924 C676.326028,3849.90328 676.17207,3849.9703 675.998189,3849.9703 C675.826118,3849.9703 675.672161,3849.90328 675.538127,3849.76924 L666.201051,3840.43217 C666.067017,3840.29813 666,3840.14418 666,3839.9703 C666,3839.79641 666.067017,3839.64246 666.201051,3839.50842 L667.202681,3838.50679 C667.336714,3838.37276 667.490672,3838.30574 667.664554,3838.30574 C667.836624,3838.30574 667.990581,3838.37276 668.124615,3838.50679 L676,3846.38218 L683.875385,3838.50679 C684.009419,3838.37276 684.163376,3838.30574 684.335446,3838.30574 C684.509328,3838.30574 684.663286,3838.37276 684.797319,3838.50679 L685.798949,3839.50842 C685.932983,3839.64246 686,3839.79641 686,3839.9703 C685.998189,3840.14418 685.931172,3840.29813 685.797138,3840.43217 Z" id="Combined-Shape" transform="translate(676.000000, 3843.832277) scale(-1, -1) translate(-676.000000, -3843.832277) "></path>
        </g>
    </g>
</svg>