<?xml version="1.0" encoding="UTF-8" standalone="no"?>
<svg width="20px" height="28px" viewBox="0 0 20 28" version="1.1" xmlns="http://www.w3.org/2000/svg" xmlns:xlink="http://www.w3.org/1999/xlink">
    <!-- Generator: Sketch 43 (38999) - http://www.bohemiancoding.com/sketch -->
    <title>Combined Shape</title>
    <desc>Created with Sketch.</desc>
    <defs></defs>
    <g id="災損查詢服務網首頁" stroke="none" stroke-width="1" fill="none" fill-rule="evenodd">
        <g id="test9" transform="translate(-674.000000, -320.000000)" fill="#00C8ED">
            <g id="＃1-index" transform="translate(-345.000000, -567.000000)">
                <path d="M1038.99819,888.664554 C1038.99819,888.838435 1038.93117,888.992393 1038.79714,889.126426 L1029.46006,898.463503 C1029.32603,898.597537 1029.17207,898.664554 1028.99819,898.664554 C1028.82612,898.664554 1028.67216,898.597537 1028.53813,898.463503 L1019.20105,889.126426 C1019.06702,888.992393 1019,888.838435 1019,888.664554 C1019,888.490672 1019.06702,888.336714 1019.20105,888.202681 L1020.20268,887.201051 C1020.33671,887.067017 1020.49067,887 1020.66455,887 C1020.83662,887 1020.99058,887.067017 1021.12462,887.201051 L1029,895.076435 L1036.87538,887.201051 C1037.00942,887.067017 1037.16338,887 1037.33545,887 C1037.50933,887 1037.66329,887.067017 1037.79732,887.201051 L1038.79895,888.202681 C1038.93298,888.336714 1039,888.490672 1039,888.664554 L1038.99819,888.664554 Z M1038.99819,904.664554 C1038.99819,904.838435 1038.93117,904.992393 1038.79714,905.126426 L1029.46006,914.463503 C1029.32603,914.597537 1029.17207,914.664554 1028.99819,914.664554 C1028.82612,914.664554 1028.67216,914.597537 1028.53813,914.463503 L1019.20105,905.126426 C1019.06702,904.992393 1019,904.838435 1019,904.664554 C1019,904.490672 1019.06702,904.336714 1019.20105,904.202681 L1020.20268,903.201051 C1020.33671,903.067017 1020.49067,903 1020.66455,903 C1020.83662,903 1020.99058,903.067017 1021.12462,903.201051 L1029,911.076435 L1036.87538,903.201051 C1037.00942,903.067017 1037.16338,903 1037.33545,903 C1037.50933,903 1037.66329,903.067017 1037.79732,903.201051 L1038.79895,904.202681 C1038.93298,904.336714 1039,904.490672 1039,904.664554 L1038.99819,904.664554 Z M1038.79714,897.432168 L1029.46006,906.769245 C1029.32603,906.903278 1029.17207,906.970295 1028.99819,906.970295 C1028.82612,906.970295 1028.67216,906.903278 1028.53813,906.769245 L1019.20105,897.432168 C1019.06702,897.298134 1019,897.144177 1019,896.970295 C1019,896.796414 1019.06702,896.642456 1019.20105,896.508422 L1020.20268,895.506792 C1020.33671,895.372759 1020.49067,895.305742 1020.66455,895.305742 C1020.83662,895.305742 1020.99058,895.372759 1021.12462,895.506792 L1029,903.382177 L1036.87538,895.506792 C1037.00942,895.372759 1037.16338,895.305742 1037.33545,895.305742 C1037.50933,895.305742 1037.66329,895.372759 1037.79732,895.506792 L1038.79895,896.508422 C1038.93298,896.642456 1039,896.796414 1039,896.970295 C1038.99819,897.144177 1038.93117,897.298134 1038.79714,897.432168 Z" id="Combined-Shape"></path>
            </g>
        </g>
    </g>
</svg>