<?xml version="1.0" encoding="UTF-8" standalone="no"?>
<svg width="50px" height="45px" viewBox="0 0 50 45" version="1.1" xmlns="http://www.w3.org/2000/svg" xmlns:xlink="http://www.w3.org/1999/xlink">
    <!-- Generator: Sketch 43 (38999) - http://www.bohemiancoding.com/sketch -->
    <title>system_icon</title>
    <desc>Created with Sketch.</desc>
    <defs></defs>
    <g id="災損查詢服務網首頁" stroke="none" stroke-width="1" fill="none" fill-rule="evenodd" opacity="0.896805037">
        <g id="test9" transform="translate(-146.000000, -2051.000000)" fill="#FFFFFF">
            <g id="#3-TLAS-3.0" transform="translate(0.000000, 1751.000000)">
                <g id="模組icon" transform="translate(123.000000, 281.000000)">
                    <g id="系統特點">
                        <path d="M61.6363776,61.0481991 L70.7272647,61.0481991 L70.7272647,51.9570038 L61.6363776,51.9570038 L61.6363776,61.0481991 Z M43.4546032,61.0481991 L52.5454904,61.0481991 L52.5454904,51.9570038 L43.4546032,51.9570038 L43.4546032,61.0481991 Z M35.3938272,19.0008523 C34.8080332,19.0565359 34.3614434,19.549165 34.3637161,20.1372517 L34.3637161,33.774613 C34.3637161,34.4019055 34.8728058,34.9110124 35.500077,34.9110124 L46.8636859,34.9110124 L46.8636859,41.1612092 L29.8182725,41.1612092 C29.7830453,41.1595046 29.7472499,41.1595046 29.7120227,41.1612092 C29.1262287,41.2163246 28.6796389,41.7089538 28.6819116,42.2976087 L28.6819116,49.6842049 L24.136468,49.6842049 C24.1012408,49.6825003 24.0654455,49.6825003 24.0302183,49.6842049 C23.4444242,49.7387521 22.9978344,50.2319494 23.0001071,50.8206043 L23.0001071,62.1845986 C22.9915844,62.811891 23.4927196,63.3278164 24.120559,63.3369076 C24.7478302,63.3454306 25.2643062,62.8442784 25.2728289,62.2164177 C25.2733971,62.2061902 25.2733971,62.1948262 25.2728289,62.1845986 L25.2728289,51.9570038 L34.3637161,51.9570038 L34.3637161,61.0481991 L28.6819116,61.0481991 C28.0546404,61.0391079 27.5387325,61.5408283 27.5296416,62.1681208 C27.5205508,62.7959815 28.0222541,63.3119068 28.6500935,63.320998 L28.6819116,63.320998 L35.500077,63.320998 C36.1279164,63.320998 36.6364379,62.811891 36.6364379,62.1845986 L36.6364379,50.8206043 C36.6364379,50.1927437 36.1279164,49.6842049 35.500077,49.6842049 L30.9546334,49.6842049 L30.9546334,43.4340081 L46.8636859,43.4340081 L46.8636859,49.6842049 L42.3182423,49.6842049 C41.6909711,49.6842049 41.1818815,50.1927437 41.1818815,50.8206043 L41.1818815,62.1845986 C41.1818815,62.811891 41.6909711,63.320998 42.3182423,63.320998 L53.6818513,63.320998 C54.3096907,63.320998 54.8182122,62.811891 54.8182122,62.1845986 L54.8182122,50.8206043 C54.8210531,50.2319494 54.3738951,49.7387521 53.7886692,49.6842049 C53.7528739,49.6825003 53.7176467,49.6825003 53.6818513,49.6842049 L49.1364077,49.6842049 L49.1364077,43.4340081 L65.0454603,43.4340081 L65.0454603,49.6842049 L60.5000167,49.6842049 C59.8727455,49.6842049 59.3636558,50.1927437 59.3636558,50.8206043 L59.3636558,62.1845986 C59.3636558,62.811891 59.8727455,63.320998 60.5000167,63.320998 L71.8636256,63.320998 C72.491465,63.320998 72.9999865,62.811891 72.9999865,62.1845986 L72.9999865,50.8206043 C73.0028274,50.2319494 72.5556694,49.7387521 71.9704436,49.6842049 C71.9346482,49.6825003 71.899421,49.6825003 71.8636256,49.6842049 L67.3181821,49.6842049 L67.3181821,42.2976087 C67.3181821,41.669748 66.8096606,41.1612092 66.1818212,41.1612092 L49.1364077,41.1612092 L49.1364077,34.9110124 L60.5000167,34.9110124 C61.1278561,34.9110124 61.6363776,34.4019055 61.6363776,33.774613 L61.6363776,24.6828494 C61.6454685,24.0555569 61.1437651,23.5396316 60.5164939,23.5305404 C59.8886545,23.5220174 59.3727467,24.0231695 59.3636558,24.6510302 L59.3636558,24.6828494 L59.3636558,32.6382136 L36.6364379,32.6382136 L36.6364379,21.2736511 L60.5000167,21.2736511 C61.1278561,21.2827423 61.6437639,20.781022 61.6528548,20.1537295 C61.6613775,19.5258688 61.1596742,19.0099435 60.532403,19.0008523 L60.5000167,19.0008523 L35.500077,19.0008523 C35.4648498,18.9997159 35.4290544,18.9997159 35.3938272,19.0008523 L35.3938272,19.0008523 Z" id="system_icon"></path>
                    </g>
                </g>
            </g>
        </g>
    </g>
</svg>